# xmcd
#
# Track frame offsets:
#	150
#	21275
#	35467
#	49275
#	71702
#	87732
#	102485
#	119585
#	135262
#	151250
#
# Disc length: 2264 seconds
#
# Revision: 0
# Processed by: cddbd v1.4b42PL1 Copyright (c) Steve Scherf et al.
# Submitted via: EZCDDA 4.3.3.2
#
DISCID=8b08d60a
DTITLE=Various Artist - Best of Southern Rock
DYEAR=1900
DGENRE=
TTITLE0=Sweet Home Alabama
TTITLE1=Fire On The Mountain
TTITLE2=There Goes Another Love Song
TTITLE3=One Way Out
TTITLE4=What's Your Name
TTITLE5=Amie
TTITLE6=Melissa
TTITLE7=Heard It In A Love Song
TTITLE8=Song For You
TTITLE9=Two Lane Highway
EXTD=
EXTT0=
EXTT1=
EXTT2=
EXTT3=
EXTT4=
EXTT5=
EXTT6=
EXTT7=
EXTT8=
EXTT9=
PLAYORDER=
